<mxfile host="app.diagrams.net" modified="2023-05-27T15:38:00.746Z" agent="Mozilla/5.0 (Windows NT 10.0; Win64; x64) AppleWebKit/537.36 (KHTML, like Gecko) Chrome/113.0.0.0 Safari/537.36 Edg/113.0.1774.50" etag="2yoZH0uTxsQHtHZAaa0e" version="21.3.4" type="device">
  <diagram name="Sayfa -1" id="clTq9Rd1g6ZMsaPgmf4y">
    <mxGraphModel dx="1379" dy="788" grid="1" gridSize="10" guides="1" tooltips="1" connect="1" arrows="1" fold="1" page="1" pageScale="1" pageWidth="827" pageHeight="1169" math="0" shadow="0">
      <root>
        <mxCell id="0" />
        <mxCell id="1" parent="0" />
        <mxCell id="KlIWKcQf9bC0C3Tw0Ewy-6" value="" style="shape=process;whiteSpace=wrap;html=1;backgroundOutline=1;" vertex="1" parent="1">
          <mxGeometry x="30" y="20" width="750" height="310" as="geometry" />
        </mxCell>
        <mxCell id="KlIWKcQf9bC0C3Tw0Ewy-2" value="CPU&lt;br&gt;Zen-4&lt;br&gt;12 cores&lt;br&gt;32 pipelines per core" style="shape=process;whiteSpace=wrap;html=1;backgroundOutline=1;" vertex="1" parent="1">
          <mxGeometry x="140" y="37.5" width="180" height="60" as="geometry" />
        </mxCell>
        <mxCell id="KlIWKcQf9bC0C3Tw0Ewy-3" value="Integrated GPU&lt;br&gt;RDNA-2&lt;br&gt;2 cores&lt;br&gt;64 pipelines per core" style="shape=process;whiteSpace=wrap;html=1;backgroundOutline=1;" vertex="1" parent="1">
          <mxGeometry x="140" y="117.5" width="180" height="60" as="geometry" />
        </mxCell>
        <mxCell id="KlIWKcQf9bC0C3Tw0Ewy-4" value="Discrete GPU&lt;br&gt;Pascal&lt;br&gt;3 cores&lt;br&gt;128 pipelines per core" style="shape=process;whiteSpace=wrap;html=1;backgroundOutline=1;" vertex="1" parent="1">
          <mxGeometry x="140" y="197.5" width="180" height="60" as="geometry" />
        </mxCell>
        <mxCell id="KlIWKcQf9bC0C3Tw0Ewy-7" value="GPGPU::Computer" style="text;html=1;align=center;verticalAlign=middle;resizable=0;points=[];autosize=1;strokeColor=none;fillColor=none;fontSize=21;" vertex="1" parent="1">
          <mxGeometry x="130" y="272.5" width="200" height="40" as="geometry" />
        </mxCell>
        <mxCell id="KlIWKcQf9bC0C3Tw0Ewy-13" style="edgeStyle=orthogonalEdgeStyle;rounded=0;orthogonalLoop=1;jettySize=auto;html=1;" edge="1" parent="1" source="KlIWKcQf9bC0C3Tw0Ewy-8" target="KlIWKcQf9bC0C3Tw0Ewy-9">
          <mxGeometry relative="1" as="geometry" />
        </mxCell>
        <mxCell id="KlIWKcQf9bC0C3Tw0Ewy-8" value="compute" style="text;html=1;align=center;verticalAlign=middle;resizable=0;points=[];autosize=1;strokeColor=none;fillColor=none;" vertex="1" parent="1">
          <mxGeometry x="550" y="300" width="70" height="30" as="geometry" />
        </mxCell>
        <mxCell id="KlIWKcQf9bC0C3Tw0Ewy-14" style="edgeStyle=orthogonalEdgeStyle;rounded=0;orthogonalLoop=1;jettySize=auto;html=1;entryX=1;entryY=0.5;entryDx=0;entryDy=0;" edge="1" parent="1" source="KlIWKcQf9bC0C3Tw0Ewy-9" target="KlIWKcQf9bC0C3Tw0Ewy-2">
          <mxGeometry relative="1" as="geometry" />
        </mxCell>
        <mxCell id="KlIWKcQf9bC0C3Tw0Ewy-15" style="edgeStyle=orthogonalEdgeStyle;rounded=0;orthogonalLoop=1;jettySize=auto;html=1;exitX=0;exitY=0.5;exitDx=0;exitDy=0;entryX=1;entryY=0.5;entryDx=0;entryDy=0;" edge="1" parent="1" source="KlIWKcQf9bC0C3Tw0Ewy-9" target="KlIWKcQf9bC0C3Tw0Ewy-3">
          <mxGeometry relative="1" as="geometry" />
        </mxCell>
        <mxCell id="KlIWKcQf9bC0C3Tw0Ewy-16" style="edgeStyle=orthogonalEdgeStyle;rounded=0;orthogonalLoop=1;jettySize=auto;html=1;exitX=0;exitY=0.5;exitDx=0;exitDy=0;entryX=1;entryY=0.5;entryDx=0;entryDy=0;" edge="1" parent="1" source="KlIWKcQf9bC0C3Tw0Ewy-9" target="KlIWKcQf9bC0C3Tw0Ewy-4">
          <mxGeometry relative="1" as="geometry" />
        </mxCell>
        <mxCell id="KlIWKcQf9bC0C3Tw0Ewy-9" value="load balancing" style="rhombus;whiteSpace=wrap;html=1;" vertex="1" parent="1">
          <mxGeometry x="500" y="80" width="170" height="160" as="geometry" />
        </mxCell>
        <mxCell id="KlIWKcQf9bC0C3Tw0Ewy-10" value="computer.compute(parameter_list,&quot;blendFunc&quot;,0,1024*1024,256)" style="text;html=1;align=center;verticalAlign=middle;resizable=0;points=[];autosize=1;strokeColor=none;fillColor=none;fontSize=26;" vertex="1" parent="1">
          <mxGeometry x="20" y="420" width="770" height="40" as="geometry" />
        </mxCell>
        <mxCell id="KlIWKcQf9bC0C3Tw0Ewy-12" value="" style="shape=flexArrow;endArrow=classic;html=1;rounded=0;" edge="1" parent="1">
          <mxGeometry width="50" height="50" relative="1" as="geometry">
            <mxPoint x="580" y="420" as="sourcePoint" />
            <mxPoint x="580" y="340" as="targetPoint" />
          </mxGeometry>
        </mxCell>
        <mxCell id="KlIWKcQf9bC0C3Tw0Ewy-17" value="60% of work" style="text;html=1;align=center;verticalAlign=middle;resizable=0;points=[];autosize=1;strokeColor=none;fillColor=none;" vertex="1" parent="1">
          <mxGeometry x="320" y="37.5" width="90" height="30" as="geometry" />
        </mxCell>
        <mxCell id="KlIWKcQf9bC0C3Tw0Ewy-18" value="10% of work" style="text;html=1;align=center;verticalAlign=middle;resizable=0;points=[];autosize=1;strokeColor=none;fillColor=none;" vertex="1" parent="1">
          <mxGeometry x="320" y="117.5" width="90" height="30" as="geometry" />
        </mxCell>
        <mxCell id="KlIWKcQf9bC0C3Tw0Ewy-19" value="5% of work" style="text;html=1;align=center;verticalAlign=middle;resizable=0;points=[];autosize=1;strokeColor=none;fillColor=none;" vertex="1" parent="1">
          <mxGeometry x="325" y="197.5" width="80" height="30" as="geometry" />
        </mxCell>
        <mxCell id="KlIWKcQf9bC0C3Tw0Ewy-20" value="C[id] = A[id] * multiplier + B[id];" style="text;html=1;align=center;verticalAlign=middle;resizable=0;points=[];autosize=1;strokeColor=none;fillColor=none;fontSize=19;fontStyle=1" vertex="1" parent="1">
          <mxGeometry x="20" y="460" width="310" height="40" as="geometry" />
        </mxCell>
        <mxCell id="KlIWKcQf9bC0C3Tw0Ewy-21" value="bandwidth bottlenecked!" style="text;html=1;align=center;verticalAlign=middle;resizable=0;points=[];autosize=1;strokeColor=none;fillColor=none;fontSize=19;fontStyle=1" vertex="1" parent="1">
          <mxGeometry x="320" y="460" width="250" height="40" as="geometry" />
        </mxCell>
        <mxCell id="KlIWKcQf9bC0C3Tw0Ewy-22" value="" style="shape=process;whiteSpace=wrap;html=1;backgroundOutline=1;" vertex="1" parent="1">
          <mxGeometry x="40" y="615" width="750" height="310" as="geometry" />
        </mxCell>
        <mxCell id="KlIWKcQf9bC0C3Tw0Ewy-23" value="CPU&lt;br&gt;Zen-4&lt;br&gt;12 cores&lt;br&gt;32 pipelines per core" style="shape=process;whiteSpace=wrap;html=1;backgroundOutline=1;" vertex="1" parent="1">
          <mxGeometry x="150" y="632.5" width="180" height="60" as="geometry" />
        </mxCell>
        <mxCell id="KlIWKcQf9bC0C3Tw0Ewy-24" value="Integrated GPU&lt;br&gt;RDNA-2&lt;br&gt;2 cores&lt;br&gt;64 pipelines per core" style="shape=process;whiteSpace=wrap;html=1;backgroundOutline=1;" vertex="1" parent="1">
          <mxGeometry x="150" y="712.5" width="180" height="60" as="geometry" />
        </mxCell>
        <mxCell id="KlIWKcQf9bC0C3Tw0Ewy-25" value="Discrete GPU&lt;br&gt;Pascal&lt;br&gt;3 cores&lt;br&gt;128 pipelines per core" style="shape=process;whiteSpace=wrap;html=1;backgroundOutline=1;" vertex="1" parent="1">
          <mxGeometry x="150" y="792.5" width="180" height="60" as="geometry" />
        </mxCell>
        <mxCell id="KlIWKcQf9bC0C3Tw0Ewy-26" value="GPGPU::Computer" style="text;html=1;align=center;verticalAlign=middle;resizable=0;points=[];autosize=1;strokeColor=none;fillColor=none;fontSize=21;" vertex="1" parent="1">
          <mxGeometry x="140" y="867.5" width="200" height="40" as="geometry" />
        </mxCell>
        <mxCell id="KlIWKcQf9bC0C3Tw0Ewy-27" style="edgeStyle=orthogonalEdgeStyle;rounded=0;orthogonalLoop=1;jettySize=auto;html=1;" edge="1" parent="1" source="KlIWKcQf9bC0C3Tw0Ewy-28" target="KlIWKcQf9bC0C3Tw0Ewy-32">
          <mxGeometry relative="1" as="geometry" />
        </mxCell>
        <mxCell id="KlIWKcQf9bC0C3Tw0Ewy-28" value="compute" style="text;html=1;align=center;verticalAlign=middle;resizable=0;points=[];autosize=1;strokeColor=none;fillColor=none;" vertex="1" parent="1">
          <mxGeometry x="560" y="895" width="70" height="30" as="geometry" />
        </mxCell>
        <mxCell id="KlIWKcQf9bC0C3Tw0Ewy-29" style="edgeStyle=orthogonalEdgeStyle;rounded=0;orthogonalLoop=1;jettySize=auto;html=1;entryX=1;entryY=0.5;entryDx=0;entryDy=0;" edge="1" parent="1" source="KlIWKcQf9bC0C3Tw0Ewy-32" target="KlIWKcQf9bC0C3Tw0Ewy-23">
          <mxGeometry relative="1" as="geometry" />
        </mxCell>
        <mxCell id="KlIWKcQf9bC0C3Tw0Ewy-30" style="edgeStyle=orthogonalEdgeStyle;rounded=0;orthogonalLoop=1;jettySize=auto;html=1;exitX=0;exitY=0.5;exitDx=0;exitDy=0;entryX=1;entryY=0.5;entryDx=0;entryDy=0;" edge="1" parent="1" source="KlIWKcQf9bC0C3Tw0Ewy-32" target="KlIWKcQf9bC0C3Tw0Ewy-24">
          <mxGeometry relative="1" as="geometry" />
        </mxCell>
        <mxCell id="KlIWKcQf9bC0C3Tw0Ewy-31" style="edgeStyle=orthogonalEdgeStyle;rounded=0;orthogonalLoop=1;jettySize=auto;html=1;exitX=0;exitY=0.5;exitDx=0;exitDy=0;entryX=1;entryY=0.5;entryDx=0;entryDy=0;" edge="1" parent="1" source="KlIWKcQf9bC0C3Tw0Ewy-32" target="KlIWKcQf9bC0C3Tw0Ewy-25">
          <mxGeometry relative="1" as="geometry" />
        </mxCell>
        <mxCell id="KlIWKcQf9bC0C3Tw0Ewy-32" value="load balancing" style="rhombus;whiteSpace=wrap;html=1;" vertex="1" parent="1">
          <mxGeometry x="510" y="675" width="170" height="160" as="geometry" />
        </mxCell>
        <mxCell id="KlIWKcQf9bC0C3Tw0Ewy-33" value="computer.compute(parameter_list,&quot;nbody&quot;,0,1024*1024,256)" style="text;html=1;align=center;verticalAlign=middle;resizable=0;points=[];autosize=1;strokeColor=none;fillColor=none;fontSize=26;" vertex="1" parent="1">
          <mxGeometry x="32" y="1015" width="720" height="40" as="geometry" />
        </mxCell>
        <mxCell id="KlIWKcQf9bC0C3Tw0Ewy-34" value="" style="shape=flexArrow;endArrow=classic;html=1;rounded=0;" edge="1" parent="1">
          <mxGeometry width="50" height="50" relative="1" as="geometry">
            <mxPoint x="590" y="1015" as="sourcePoint" />
            <mxPoint x="590" y="935" as="targetPoint" />
          </mxGeometry>
        </mxCell>
        <mxCell id="KlIWKcQf9bC0C3Tw0Ewy-35" value="55% of work" style="text;html=1;align=center;verticalAlign=middle;resizable=0;points=[];autosize=1;strokeColor=none;fillColor=none;" vertex="1" parent="1">
          <mxGeometry x="330" y="632.5" width="90" height="30" as="geometry" />
        </mxCell>
        <mxCell id="KlIWKcQf9bC0C3Tw0Ewy-36" value="15% of work" style="text;html=1;align=center;verticalAlign=middle;resizable=0;points=[];autosize=1;strokeColor=none;fillColor=none;" vertex="1" parent="1">
          <mxGeometry x="330" y="712.5" width="90" height="30" as="geometry" />
        </mxCell>
        <mxCell id="KlIWKcQf9bC0C3Tw0Ewy-37" value="30% of work" style="text;html=1;align=center;verticalAlign=middle;resizable=0;points=[];autosize=1;strokeColor=none;fillColor=none;" vertex="1" parent="1">
          <mxGeometry x="330" y="792.5" width="90" height="30" as="geometry" />
        </mxCell>
        <mxCell id="KlIWKcQf9bC0C3Tw0Ewy-38" value="O(N^2)" style="text;html=1;align=center;verticalAlign=middle;resizable=0;points=[];autosize=1;strokeColor=none;fillColor=none;fontSize=19;fontStyle=1" vertex="1" parent="1">
          <mxGeometry x="29" y="1055" width="90" height="40" as="geometry" />
        </mxCell>
        <mxCell id="KlIWKcQf9bC0C3Tw0Ewy-39" value="compute bottlenecked!" style="text;html=1;align=center;verticalAlign=middle;resizable=0;points=[];autosize=1;strokeColor=none;fillColor=none;fontSize=19;fontStyle=1" vertex="1" parent="1">
          <mxGeometry x="129" y="1055" width="230" height="40" as="geometry" />
        </mxCell>
      </root>
    </mxGraphModel>
  </diagram>
</mxfile>
